<?xml version="1.0" encoding="UTF-8" standalone="no"?>
<!DOCTYPE svg PUBLIC "-//W3C//DTD SVG 1.1//EN" "http://www.w3.org/Graphics/SVG/1.1/DTD/svg11.dtd">
<svg width="100%" height="100%" viewBox="0 0 24 24" version="1.1" xmlns="http://www.w3.org/2000/svg" xmlns:xlink="http://www.w3.org/1999/xlink" xml:space="preserve" xmlns:serif="http://www.serif.com/" style="fill-rule:evenodd;clip-rule:evenodd;stroke-linejoin:round;stroke-miterlimit:2;">
    <g id="Layer-19">
        <g id="Vrstva_101">
            <path d="M16.7,2.29C16.141,1.484 15.221,1.002 14.24,1L6,1C4.354,1 3,2.354 3,4L3,20C3,21.646 4.354,23 6,23L18,23C19.646,23 21,21.646 21,20L21,9.4C20.999,8.788 20.81,8.192 20.46,7.69L16.7,2.29ZM19,20C19,20.549 18.549,21 18,21L6,21C5.451,21 5,20.549 5,20L5,4C5,3.451 5.451,3 6,3L14.24,3C14.567,3.001 14.874,3.161 15.06,3.43L18.82,8.83C18.937,8.997 19,9.196 19,9.4L19,20Z" style="fill:rgb(233,30,99);"/>
            <path d="M16.29,12L13,12L13,8.71C13,8.32 12.55,8 12,8C11.45,8 11,8.32 11,8.71L11,12L7.71,12C7.32,12 7,12.45 7,13C7,13.55 7.32,14 7.71,14L11,14L11,17.29C11,17.68 11.45,18 12,18C12.55,18 13,17.68 13,17.29L13,14L16.29,14C16.68,14 17,13.55 17,13C17,12.45 16.68,12 16.29,12Z" style="fill:rgb(233,30,99);"/>
        </g>
    </g>
</svg>
