<?xml version="1.0" encoding="UTF-8" standalone="no"?>
<!DOCTYPE svg PUBLIC "-//W3C//DTD SVG 1.1//EN" "http://www.w3.org/Graphics/SVG/1.1/DTD/svg11.dtd">
<svg width="100%" height="100%" viewBox="0 0 12 10" version="1.1" xmlns="http://www.w3.org/2000/svg" xmlns:xlink="http://www.w3.org/1999/xlink" xml:space="preserve" xmlns:serif="http://www.serif.com/" style="fill-rule:evenodd;clip-rule:evenodd;stroke-linejoin:round;stroke-miterlimit:2;">
    <g transform="matrix(1,0,0,1,-49.3632,-6.22583)">
        <g transform="matrix(0.307176,0,0,0.26894,34.2,4.55146)">
            <path d="M88.331,9.944C88.331,7.892 86.872,6.226 85.075,6.226L52.619,6.226C50.822,6.226 49.363,7.892 49.363,9.944C49.363,11.996 50.822,13.662 52.619,13.662L85.075,13.662C86.872,13.662 88.331,11.996 88.331,9.944Z" style="fill:rgb(233,30,99);"/>
        </g>
        <g transform="matrix(0.307176,0,0,0.26894,34.2,8.55146)">
            <path d="M88.331,9.944C88.331,7.892 86.872,6.226 85.075,6.226L52.619,6.226C50.822,6.226 49.363,7.892 49.363,9.944C49.363,11.996 50.822,13.662 52.619,13.662L85.075,13.662C86.872,13.662 88.331,11.996 88.331,9.944Z" style="fill:rgb(233,30,99);"/>
        </g>
        <g transform="matrix(0.307176,0,0,0.26894,34.2,12.5515)">
            <path d="M88.331,9.944C88.331,7.892 86.872,6.226 85.075,6.226L52.619,6.226C50.822,6.226 49.363,7.892 49.363,9.944C49.363,11.996 50.822,13.662 52.619,13.662L85.075,13.662C86.872,13.662 88.331,11.996 88.331,9.944Z" style="fill:rgb(233,30,99);"/>
        </g>
    </g>
</svg>
