<?xml version="1.0" encoding="UTF-8" standalone="no"?>
<!DOCTYPE svg PUBLIC "-//W3C//DTD SVG 1.1//EN" "http://www.w3.org/Graphics/SVG/1.1/DTD/svg11.dtd">
<svg width="100%" height="100%" viewBox="0 0 24 24" version="1.1" xmlns="http://www.w3.org/2000/svg" xmlns:xlink="http://www.w3.org/1999/xlink" xml:space="preserve" xmlns:serif="http://www.serif.com/" style="fill-rule:evenodd;clip-rule:evenodd;stroke-linejoin:round;stroke-miterlimit:2;">
    <g id="Layer-243">
        <path d="M4,16C2.354,16 1,17.354 1,19L1,19.5C1,20.323 1.677,21 2.5,21L5.5,21C6.323,21 7,20.323 7,19.5L7,19C7,17.354 5.646,16 4,16ZM3,19C3,18.451 3.451,18 4,18C4.549,18 5,18.451 5,19L3,19Z" style="fill:rgb(233,30,99);"/>
        <path d="M12,16C10.354,16 9,17.354 9,19L9,19.5C9,20.323 9.677,21 10.5,21L13.5,21C14.323,21 15,20.323 15,19.5L15,19C15,17.354 13.646,16 12,16ZM11,19C11,18.451 11.451,18 12,18C12.549,18 13,18.451 13,19L11,19Z" style="fill:rgb(233,30,99);"/>
        <path d="M20,16C18.354,16 17,17.354 17,19L17,19.5C17,20.323 17.677,21 18.5,21L21.5,21C22.323,21 23,20.323 23,19.5L23,19C23,17.354 21.646,16 20,16ZM19,19C19,18.451 19.451,18 20,18C20.549,18 21,18.451 21,19L19,19Z" style="fill:rgb(233,30,99);"/>
        <path d="M19.74,3.2L11.85,3.89L11.67,3.89L4.28,3.21C4.187,3.201 4.093,3.197 4,3.197C2.357,3.197 1.004,4.547 1,6.19L1,14C1,14.549 1.451,15 2,15C2.549,15 3,14.549 3,14L3,6.19C3,6.189 3,6.187 3,6.186C3,5.637 3.451,5.186 4,5.186C4.03,5.186 4.06,5.187 4.09,5.19L11.48,5.87C11.659,5.89 11.841,5.89 12.02,5.87L19.91,5.18C19.94,5.177 19.97,5.176 20,5.176C20.549,5.176 21,5.627 21,6.176C21,6.177 21,6.179 21,6.18L21,14C21,14.549 21.451,15 22,15C22.549,15 23,14.549 23,14L23,6.18C22.995,4.538 21.642,3.189 20,3.189C19.913,3.189 19.826,3.192 19.74,3.2Z" style="fill:rgb(233,30,99);"/>
        <path d="M10.84,13.66L14.26,11.52C14.59,11.295 14.789,10.92 14.789,10.52C14.789,10.12 14.59,9.745 14.26,9.52L10.84,7.34C10.648,7.219 10.426,7.155 10.2,7.155C9.542,7.155 9,7.697 9,8.355C9,8.357 9,8.358 9,8.36L9,12.64C9,12.642 9,12.643 9,12.645C9,13.303 9.542,13.845 10.2,13.845C10.426,13.845 10.648,13.781 10.84,13.66ZM11,9.8L12.11,10.5L11,11.2L11,9.8Z" style="fill:rgb(233,30,99);"/>
    </g>
</svg>
