<?xml version="1.0" encoding="UTF-8" standalone="no"?><!DOCTYPE svg PUBLIC "-//W3C//DTD SVG 1.1//EN" "http://www.w3.org/Graphics/SVG/1.1/DTD/svg11.dtd"><svg width="100%" height="100%" viewBox="0 0 13 13" version="1.1" xmlns="http://www.w3.org/2000/svg" xmlns:xlink="http://www.w3.org/1999/xlink" xml:space="preserve" xmlns:serif="http://www.serif.com/" style="fill-rule:evenodd;clip-rule:evenodd;stroke-linejoin:round;stroke-miterlimit:2;"><path d="M7.416,6.004l4.3,-4.29c0.188,-0.188 0.294,-0.444 0.294,-0.71c-0,-0.551 -0.453,-1.004 -1.004,-1.004c-0.266,-0 -0.522,0.106 -0.71,0.294l-4.29,4.3l-4.29,-4.3c-0.188,-0.188 -0.444,-0.294 -0.71,-0.294c-0.551,0 -1.004,0.453 -1.004,1.004c-0,0.266 0.106,0.522 0.294,0.71l4.3,4.29l-4.3,4.29c-0.189,0.188 -0.296,0.444 -0.296,0.71c-0,0.267 0.107,0.522 0.296,0.71c0.187,0.189 0.443,0.296 0.71,0.296c0.266,-0 0.522,-0.107 0.71,-0.296l4.29,-4.3l4.29,4.3c0.187,0.189 0.443,0.296 0.71,0.296c0.266,-0 0.522,-0.107 0.71,-0.296c0.189,-0.188 0.296,-0.443 0.296,-0.71c-0,-0.266 -0.107,-0.522 -0.296,-0.71l-4.3,-4.29Z" style="fill:#fff;fill-rule:nonzero;"/></svg>