<?xml version="1.0" encoding="UTF-8" standalone="no"?><!DOCTYPE svg PUBLIC "-//W3C//DTD SVG 1.1//EN" "http://www.w3.org/Graphics/SVG/1.1/DTD/svg11.dtd"><svg width="100%" height="100%" viewBox="0 0 24 24" version="1.1" xmlns="http://www.w3.org/2000/svg" xmlns:xlink="http://www.w3.org/1999/xlink" xml:space="preserve" xmlns:serif="http://www.serif.com/" style="fill-rule:evenodd;clip-rule:evenodd;stroke-linejoin:round;stroke-miterlimit:2;"><g><g><g><g><path d="M23.786,9.78c-0.061,-0.322 -0.322,-0.567 -0.648,-0.606c-0.326,-0.039 -0.637,0.137 -0.772,0.437c-0.238,0.525 -0.76,0.89 -1.365,0.889c-0.672,0.002 -1.239,-0.451 -1.428,-1.073c-0.114,-0.38 -0.504,-0.605 -0.889,-0.515c-0.237,0.056 -0.461,0.088 -0.684,0.088c-1.652,-0.003 -2.997,-1.348 -3,-3c-0,-0.223 0.032,-0.447 0.088,-0.683c0.09,-0.386 -0.135,-0.776 -0.515,-0.89c-0.622,-0.189 -1.075,-0.756 -1.073,-1.427c-0.001,-0.606 0.364,-1.127 0.889,-1.365c0.3,-0.135 0.476,-0.447 0.437,-0.772c-0.039,-0.327 -0.284,-0.588 -0.606,-0.649c-0.716,-0.134 -1.457,-0.214 -2.22,-0.214c-6.619,0.002 -11.999,5.381 -12,12c0.002,6.62 5.381,11.999 12,12c6.62,-0.001 11.999,-5.38 12,-12c0,-0.763 -0.08,-1.504 -0.214,-2.22Zm-4.365,9.641c-1.904,1.903 -4.525,3.079 -7.421,3.079c-2.896,0 -5.517,-1.176 -7.421,-3.079c-1.903,-1.904 -3.079,-4.524 -3.079,-7.421c0,-2.896 1.176,-5.517 3.079,-7.421c1.904,-1.903 4.525,-3.079 7.421,-3.079c0.135,0 0.267,0.014 0.401,0.02c-0.25,0.437 -0.4,0.939 -0.401,1.48c0.002,1.12 0.622,2.08 1.528,2.592c-0.014,0.134 -0.028,0.267 -0.028,0.408c0.002,2.483 2.017,4.499 4.5,4.5c0.141,0 0.274,-0.013 0.408,-0.028c0.512,0.905 1.471,1.527 2.592,1.528c0.541,-0.001 1.043,-0.151 1.48,-0.401c0.006,0.133 0.02,0.266 0.02,0.401c0,2.897 -1.176,5.517 -3.079,7.421Z" style="fill:#004798;fill-rule:nonzero;"/><circle cx="9" cy="6" r="1.5" style="fill:#004798;"/><circle cx="6" cy="12" r="1.5" style="fill:#004798;"/><circle cx="13.5" cy="18" r="1.5" style="fill:#004798;"/><circle cx="12.75" cy="12.75" r="0.75" style="fill:#004798;"/><circle cx="18.75" cy="15.75" r="0.75" style="fill:#004798;"/><circle cx="8.25" cy="17.25" r="0.75" style="fill:#004798;"/></g></g></g></g></svg>