<?xml version="1.0" encoding="UTF-8" standalone="no"?>
<!DOCTYPE svg PUBLIC "-//W3C//DTD SVG 1.1//EN" "http://www.w3.org/Graphics/SVG/1.1/DTD/svg11.dtd">
<svg width="100%" height="100%" viewBox="0 0 517 109" version="1.1" xmlns="http://www.w3.org/2000/svg" xmlns:xlink="http://www.w3.org/1999/xlink" xml:space="preserve" xmlns:serif="http://www.serif.com/" style="fill-rule:evenodd;clip-rule:evenodd;stroke-linejoin:round;stroke-miterlimit:2;">
    <g id="Vrstva_2">
        <g id="nové_logo">
            <path d="M9.35,80.47C9.713,79.877 10.36,79.514 11.056,79.514C11.601,79.514 12.123,79.737 12.5,80.13C15.046,82.88 17.969,85.257 21.18,87.19C24.277,89.089 27.827,90.125 31.46,90.19C34.292,90.308 37.074,89.398 39.29,87.63C41.271,86.063 42.408,83.655 42.36,81.13C42.515,78.616 41.543,76.158 39.71,74.43C37.937,72.863 33.937,71.247 27.71,69.58C19.17,67.267 13.13,64.267 9.59,60.58C6.05,56.893 4.283,51.827 4.29,45.38C4.29,37.04 7.08,30.24 12.66,24.98C18.24,19.72 25.48,17.087 34.38,17.08C39.006,17.05 43.611,17.696 48.05,19C52.41,20.316 56.542,22.296 60.3,24.87L53.5,40.47L44.5,36.76C41.847,35.625 38.995,35.026 36.11,35C33.619,34.862 31.152,35.567 29.11,37C27.403,38.21 26.4,40.188 26.43,42.28C26.354,44.296 27.224,46.236 28.78,47.52C30.353,48.853 33.38,50.103 37.86,51.27L38.94,51.57C48.627,54.19 55,57.07 58.06,60.21C60.185,62.433 61.802,65.091 62.8,68C63.909,71.216 64.454,74.599 64.41,78C64.41,87.253 61.37,94.69 55.29,100.31C49.21,105.93 41.113,108.727 31,108.7C25.319,108.776 19.68,107.723 14.41,105.6C9.043,103.291 4.155,99.998 0,95.89L9.35,80.47Z" style="fill:white;fill-rule:nonzero;"/>
            <path d="M95.33,106.38L95.33,39.76L70.78,39.76L70.78,29.15C70.78,23.664 75.294,19.15 80.78,19.15L143.64,19.15L143.64,29.76C143.64,35.246 139.126,39.76 133.64,39.76L119.1,39.76L119.1,106.38L95.33,106.38Z" style="fill:white;fill-rule:nonzero;"/>
            <path d="M154.65,19.15L178.44,19.15L178.44,61.57C178.369,66.052 178.529,70.535 178.92,75C179.139,77.337 179.681,79.632 180.53,81.82C181.441,84.041 183.135,85.853 185.29,86.91C190.551,89.255 196.569,89.255 201.83,86.91C203.979,85.836 205.678,84.031 206.62,81.82C207.464,79.63 208.006,77.336 208.23,75C208.621,70.531 208.782,66.045 208.71,61.56L208.71,19.15L232.36,19.15L232.36,65.27C232.36,74.843 231.783,81.903 230.63,86.45C229.616,90.735 227.616,94.724 224.79,98.1C221.518,101.848 217.27,104.618 212.52,106.1C206.373,108.01 199.955,108.905 193.52,108.75C187.085,108.906 180.667,108.011 174.52,106.1C169.766,104.603 165.509,101.836 162.21,98.1C159.423,94.702 157.437,90.72 156.4,86.45C155.233,81.897 154.65,74.837 154.65,65.27L154.65,19.15Z" style="fill:white;fill-rule:nonzero;"/>
            <path d="M250.42,96.38L250.42,19.15L268.59,19.15C282.13,19.15 291.713,19.787 297.34,21.06C302.643,22.192 307.672,24.357 312.14,27.43C317.567,31.166 321.905,36.278 324.71,42.24C327.668,48.69 329.134,55.725 329,62.82C329.134,69.918 327.668,76.956 324.71,83.41C321.905,89.369 317.567,94.478 312.14,98.21C307.785,101.218 302.888,103.354 297.72,104.5C292.32,105.753 283.94,106.38 272.58,106.38L260.42,106.38C254.934,106.38 250.42,101.866 250.42,96.38ZM274,86.83L278,86.83C287.333,86.83 294.147,84.913 298.44,81.08C302.733,77.247 304.877,71.16 304.87,62.82C304.87,54.48 302.727,48.363 298.44,44.47C294.153,40.577 287.34,38.63 278,38.63L274,38.63L274,86.83Z" style="fill:white;fill-rule:nonzero;"/>
            <path d="M344.5,106.38L344.5,29.15C344.5,23.664 349.014,19.15 354.5,19.15L368.5,19.15L368.5,96.38C368.5,101.866 363.986,106.38 358.5,106.38L344.5,106.38Z" style="fill:white;fill-rule:nonzero;"/>
            <path d="M516.21,0L516.21,0.36C516.21,11.36 511.45,21.81 498.89,21.81L458.62,21.81C457.525,21.813 456.625,22.715 456.625,23.81C456.625,24.463 456.945,25.076 457.48,25.45C459.709,26.977 461.801,28.697 463.73,30.59C472.449,39.092 477.372,50.767 477.372,62.945C477.372,75.123 472.449,86.798 463.73,95.3C459.327,99.555 454.146,102.923 448.47,105.22C437.019,109.858 424.201,109.858 412.75,105.22C407.143,102.939 402.044,99.567 397.75,95.3C393.367,91.126 389.888,86.095 387.53,80.52C382.878,69.259 382.878,56.601 387.53,45.34C389.891,39.776 393.37,34.755 397.75,30.59C402.041,26.32 407.141,22.947 412.75,20.67C416.707,19.046 420.87,17.98 425.12,17.5L425.12,34.28C425.151,36.292 423.964,38.135 422.12,38.94C419.125,40.215 416.46,42.158 414.33,44.62C410.023,49.493 407.87,55.6 407.87,62.94C407.87,70.407 409.993,76.543 414.24,81.35C418.442,85.943 424.388,88.562 430.613,88.562C436.866,88.562 442.836,85.919 447.04,81.29C451.353,76.45 453.51,70.333 453.51,62.94C453.51,55.547 451.323,49.45 446.95,44.65C444.83,42.223 442.201,40.294 439.25,39C437.409,38.22 436.206,36.409 436.2,34.41L436.2,13.74C436.2,5.74 439.29,0 449.75,0L516.21,0Z" style="fill:rgb(233,30,99);fill-rule:nonzero;"/>
        </g>
    </g>
</svg>
