<?xml version="1.0" encoding="UTF-8" standalone="no"?>
<!DOCTYPE svg PUBLIC "-//W3C//DTD SVG 1.1//EN" "http://www.w3.org/Graphics/SVG/1.1/DTD/svg11.dtd">
<svg width="100%" height="100%" viewBox="0 0 133 109" version="1.1" xmlns="http://www.w3.org/2000/svg" xmlns:xlink="http://www.w3.org/1999/xlink" xml:space="preserve" xmlns:serif="http://www.serif.com/" style="fill-rule:evenodd;clip-rule:evenodd;stroke-linejoin:round;stroke-miterlimit:2;">
    <g transform="matrix(1,0,0,1,-384.041,0)">
        <g id="nové_logo">
            <path d="M516.21,0L516.21,0.36C516.21,11.36 511.45,21.81 498.89,21.81L458.62,21.81C457.525,21.813 456.625,22.715 456.625,23.81C456.625,24.463 456.945,25.076 457.48,25.45C459.709,26.977 461.801,28.697 463.73,30.59C472.449,39.092 477.372,50.767 477.372,62.945C477.372,75.123 472.449,86.798 463.73,95.3C459.327,99.555 454.146,102.923 448.47,105.22C437.019,109.858 424.201,109.858 412.75,105.22C407.143,102.939 402.044,99.567 397.75,95.3C393.367,91.126 389.888,86.095 387.53,80.52C382.878,69.259 382.878,56.601 387.53,45.34C389.891,39.776 393.37,34.755 397.75,30.59C402.041,26.32 407.141,22.947 412.75,20.67C416.707,19.046 420.87,17.98 425.12,17.5L425.12,34.28C425.151,36.292 423.964,38.135 422.12,38.94C419.125,40.215 416.46,42.158 414.33,44.62C410.023,49.493 407.87,55.6 407.87,62.94C407.87,70.407 409.993,76.543 414.24,81.35C418.442,85.943 424.388,88.562 430.613,88.562C436.866,88.562 442.836,85.919 447.04,81.29C451.353,76.45 453.51,70.333 453.51,62.94C453.51,55.547 451.323,49.45 446.95,44.65C444.83,42.223 442.201,40.294 439.25,39C437.409,38.22 436.206,36.409 436.2,34.41L436.2,13.74C436.2,5.74 439.29,0 449.75,0L516.21,0Z" style="fill:rgb(233,30,99);fill-rule:nonzero;"/>
        </g>
    </g>
</svg>
